<?xml version="1.0" standalone="no"?>
<!DOCTYPE svg PUBLIC "-//W3C//DTD SVG 20010904//EN"
 "http://www.w3.org/TR/2001/REC-SVG-20010904/DTD/svg10.dtd">
<svg version="1.0" xmlns="http://www.w3.org/2000/svg"
 width="72.000000pt" height="72.000000pt" viewBox="0 0 72.000000 72.000000"
 preserveAspectRatio="xMidYMid meet">
<metadata>
Created by potrace 1.11, written by Peter Selinger 2001-2013
</metadata>
<g transform="translate(0.000000,72.000000) scale(0.100000,-0.100000)"
fill="#000000" stroke="none">
<path d="M0 360 l0 -360 360 0 360 0 0 360 0 360 -360 0 -360 0 0 -360z m200
75 c0 -45 0 -45 35 -45 35 0 35 0 35 45 0 45 0 45 35 45 l35 0 0 -125 0 -125
-35 0 -35 0 0 50 0 50 -35 0 -35 0 0 -50 c0 -49 -1 -50 -30 -50 l-30 0 0 125
0 125 30 0 c29 0 30 -2 30 -45z m351 27 c16 -13 22 -28 21 -50 -3 -59 -5 -63
-16 -52 -5 5 -47 10 -93 10 l-82 0 -4 -57 c-2 -32 -4 -7 -5 55 l-2 112 79 0
c62 0 84 -4 102 -18z m-83 -129 c-18 -3 -28 -12 -31 -26 -4 -18 -5 -17 -6 6
-1 24 2 27 32 26 29 -2 29 -2 5 -6z"/>
<path d="M440 405 c0 -12 8 -16 33 -13 17 2 32 8 32 13 0 6 -15 11 -32 13 -25
3 -33 -1 -33 -13z"/>
</g>
</svg>
